<?xml version="1.0" encoding="UTF-8" standalone="no"?>
<!DOCTYPE svg PUBLIC "-//W3C//DTD SVG 1.1//EN"
 "http://www.w3.org/Graphics/SVG/1.1/DTD/svg11.dtd">
<!-- Generated by graphviz version 2.43.0 (0)
 -->
<!-- Title: a_graph Pages: 1 -->
<svg width="458pt" height="119pt"
 viewBox="0.00 0.00 458.00 119.00" xmlns="http://www.w3.org/2000/svg" xmlns:xlink="http://www.w3.org/1999/xlink">
<g id="graph0" class="graph" transform="scale(1 1) rotate(0) translate(4 115)">
<title>a_graph</title>
<polygon fill="white" stroke="transparent" points="-4,4 -4,-115 454,-115 454,4 -4,4"/>
<!-- T187 -->
<g id="node1" class="node">
<title>T187</title>
<polygon fill="none" stroke="#0058ad" points="0,-81.5 0,-110.5 450,-110.5 450,-81.5 0,-81.5"/>
<text text-anchor="middle" x="194.5" y="-92.3" font-family="Times,serif" font-size="14.00" fill="#0058ad">r 9 [1 4 10 14 20 21 23 28 30 35 36 39 40 43 44 48]</text>
<polyline fill="none" stroke="#0058ad" points="389,-81.5 389,-110.5 "/>
<text text-anchor="middle" x="419.5" y="-92.3" font-family="Times,serif" font-size="14.00" fill="#0058ad">a 8 31</text>
</g>
<!-- T175 -->
<g id="node2" class="node">
<title>T175</title>
<polygon fill="none" stroke="#0058ad" points="107.5,-0.5 107.5,-29.5 330.5,-29.5 330.5,-0.5 107.5,-0.5"/>
<text text-anchor="middle" x="138" y="-11.3" font-family="Times,serif" font-size="14.00" fill="#0058ad">a 9 48</text>
<polyline fill="none" stroke="#0058ad" points="168.5,-0.5 168.5,-29.5 "/>
<text text-anchor="middle" x="199" y="-11.3" font-family="Times,serif" font-size="14.00" fill="#0058ad">a 9 49</text>
<polyline fill="none" stroke="#0058ad" points="229.5,-0.5 229.5,-29.5 "/>
<text text-anchor="middle" x="280" y="-11.3" font-family="Times,serif" font-size="14.00" fill="#0058ad">r 5 [1 3 4 5]</text>
</g>
<!-- T187&#45;&gt;T175 -->
<g id="edge1" class="edge">
<title>T187:f0&#45;&gt;T175:f1</title>
<path fill="none" stroke="#5b00c0" d="M194,-81C194,-72.42 188.58,-71.44 187,-63 185.77,-56.45 185.07,-54.38 187,-48 188.39,-43.4 191.39,-41.3 194.04,-39.15"/>
<polygon fill="#5b00c0" stroke="#5b00c0" points="197.32,-40.46 199,-30 191.16,-37.13 197.32,-40.46"/>
<text text-anchor="middle" x="199" y="-51.8" font-family="Times,serif" font-size="14.00" fill="#5b00c0">:rw</text>
</g>
<!-- T175&#45;&gt;T187 -->
<g id="edge2" class="edge">
<title>T175&#45;&gt;T187</title>
<path fill="none" stroke="#00c0c0" d="M220.03,-29.6C220.9,-41 222.15,-57.53 223.19,-71.12"/>
<polygon fill="#00c0c0" stroke="#00c0c0" points="219.71,-71.53 223.95,-81.24 226.69,-71 219.71,-71.53"/>
<text text-anchor="middle" x="228" y="-51.8" font-family="Times,serif" font-size="14.00" fill="#00c0c0">p</text>
</g>
</g>
</svg>
