<?xml version="1.0" encoding="UTF-8" standalone="no"?>
<!DOCTYPE svg PUBLIC "-//W3C//DTD SVG 1.1//EN"
 "http://www.w3.org/Graphics/SVG/1.1/DTD/svg11.dtd">
<!-- Generated by graphviz version 2.43.0 (0)
 -->
<!-- Title: a_graph Pages: 1 -->
<svg width="242pt" height="119pt"
 viewBox="0.00 0.00 242.00 119.00" xmlns="http://www.w3.org/2000/svg" xmlns:xlink="http://www.w3.org/1999/xlink">
<g id="graph0" class="graph" transform="scale(1 1) rotate(0) translate(4 115)">
<title>a_graph</title>
<polygon fill="white" stroke="transparent" points="-4,4 -4,-115 238,-115 238,4 -4,4"/>
<!-- T37 -->
<g id="node1" class="node">
<title>T37</title>
<polygon fill="none" stroke="#0058ad" points="51,-81.5 51,-110.5 234,-110.5 234,-81.5 51,-81.5"/>
<text text-anchor="middle" x="81.5" y="-92.3" font-family="Times,serif" font-size="14.00" fill="#0058ad">r 8 [1]</text>
<polyline fill="none" stroke="#0058ad" points="112,-81.5 112,-110.5 "/>
<text text-anchor="middle" x="142.5" y="-92.3" font-family="Times,serif" font-size="14.00" fill="#0058ad">a 9 10</text>
<polyline fill="none" stroke="#0058ad" points="173,-81.5 173,-110.5 "/>
<text text-anchor="middle" x="203.5" y="-92.3" font-family="Times,serif" font-size="14.00" fill="#0058ad">r 8 [1]</text>
</g>
<!-- T13 -->
<g id="node2" class="node">
<title>T13</title>
<polygon fill="none" stroke="#0058ad" points="0,-0.5 0,-29.5 163,-29.5 163,-0.5 0,-0.5"/>
<text text-anchor="middle" x="26" y="-11.3" font-family="Times,serif" font-size="14.00" fill="#0058ad">a 8 1</text>
<polyline fill="none" stroke="#0058ad" points="52,-0.5 52,-29.5 "/>
<text text-anchor="middle" x="81.5" y="-11.3" font-family="Times,serif" font-size="14.00" fill="#0058ad">r 7 nil</text>
<polyline fill="none" stroke="#0058ad" points="111,-0.5 111,-29.5 "/>
<text text-anchor="middle" x="137" y="-11.3" font-family="Times,serif" font-size="14.00" fill="#0058ad">a 8 2</text>
</g>
<!-- T37&#45;&gt;T13 -->
<g id="edge1" class="edge">
<title>T37:f0&#45;&gt;T13:f2</title>
<path fill="none" stroke="#5b00c0" d="M81.5,-81C81.5,-51.28 125.14,-60.52 135.37,-39.94"/>
<polygon fill="#5b00c0" stroke="#5b00c0" points="138.83,-40.51 137.5,-30 131.98,-39.05 138.83,-40.51"/>
<text text-anchor="middle" x="138.5" y="-51.8" font-family="Times,serif" font-size="14.00" fill="#5b00c0">:rw</text>
</g>
<!-- T13&#45;&gt;T37 -->
<g id="edge2" class="edge">
<title>T13:f0&#45;&gt;T37:f0</title>
<path fill="none" stroke="#c000a5" d="M25.5,-30C25.5,-57.31 19.98,-87.36 39.51,-94.44"/>
<polygon fill="#c000a5" stroke="#c000a5" points="39.08,-97.92 49.5,-96 40.16,-91 39.08,-97.92"/>
<text text-anchor="middle" x="37.5" y="-51.8" font-family="Times,serif" font-size="14.00" fill="#c000a5">:wr</text>
</g>
</g>
</svg>
