<?xml version="1.0" encoding="UTF-8" standalone="no"?>
<!DOCTYPE svg PUBLIC "-//W3C//DTD SVG 1.1//EN"
 "http://www.w3.org/Graphics/SVG/1.1/DTD/svg11.dtd">
<!-- Generated by graphviz version 2.43.0 (0)
 -->
<!-- Title: a_graph Pages: 1 -->
<svg width="138pt" height="200pt"
 viewBox="0.00 0.00 137.50 200.00" xmlns="http://www.w3.org/2000/svg" xmlns:xlink="http://www.w3.org/1999/xlink">
<g id="graph0" class="graph" transform="scale(1 1) rotate(0) translate(4 196)">
<title>a_graph</title>
<polygon fill="white" stroke="transparent" points="-4,4 -4,-196 133.5,-196 133.5,4 -4,4"/>
<!-- T3 -->
<g id="node1" class="node">
<title>T3</title>
<polygon fill="none" stroke="#0058ad" points="70.5,-162.5 70.5,-191.5 129.5,-191.5 129.5,-162.5 70.5,-162.5"/>
<text text-anchor="middle" x="100" y="-173.3" font-family="Times,serif" font-size="14.00" fill="#0058ad">w :x 1</text>
</g>
<!-- T5 -->
<g id="node3" class="node">
<title>T5</title>
<polygon fill="none" stroke="#0058ad" points="0,-81.5 0,-110.5 84,-110.5 84,-81.5 0,-81.5"/>
<text text-anchor="middle" x="42" y="-92.3" font-family="Times,serif" font-size="14.00" fill="#0058ad">r :x #{1}</text>
</g>
<!-- T3&#45;&gt;T5 -->
<g id="edge1" class="edge">
<title>T3:f0&#45;&gt;T5:f0</title>
<path fill="none" stroke="#c000a5" d="M89.36,-162.14C80.78,-150.15 68.55,-133.07 58.66,-119.27"/>
<polygon fill="#c000a5" stroke="#c000a5" points="61.24,-116.86 52.57,-110.76 55.55,-120.93 61.24,-116.86"/>
<text text-anchor="middle" x="89" y="-132.8" font-family="Times,serif" font-size="14.00" fill="#c000a5">:wr</text>
</g>
<!-- T1 -->
<g id="node2" class="node">
<title>T1</title>
<polygon fill="none" stroke="#0058ad" points="51.5,-0.5 51.5,-29.5 110.5,-29.5 110.5,-0.5 51.5,-0.5"/>
<text text-anchor="middle" x="81" y="-11.3" font-family="Times,serif" font-size="14.00" fill="#0058ad">w :x 0</text>
</g>
<!-- T1&#45;&gt;T3 -->
<g id="edge2" class="edge">
<title>T1&#45;&gt;T3</title>
<path fill="none" stroke="#00c0c0" d="M86.91,-29.81C89.1,-35.38 91.43,-41.91 93,-48 103.76,-89.63 108.33,-101.13 105,-144 104.79,-146.74 104.47,-149.61 104.1,-152.45"/>
<polygon fill="#00c0c0" stroke="#00c0c0" points="100.64,-151.94 102.61,-162.35 107.56,-152.99 100.64,-151.94"/>
<text text-anchor="middle" x="110" y="-92.3" font-family="Times,serif" font-size="14.00" fill="#00c0c0">p</text>
</g>
<!-- T5&#45;&gt;T1 -->
<g id="edge3" class="edge">
<title>T5:f0&#45;&gt;T1:f0</title>
<path fill="none" stroke="#5b00c0" d="M49.15,-81.14C54.82,-69.38 62.84,-52.72 69.41,-39.06"/>
<polygon fill="#5b00c0" stroke="#5b00c0" points="72.71,-40.29 73.89,-29.76 66.4,-37.25 72.71,-40.29"/>
<text text-anchor="middle" x="77" y="-51.8" font-family="Times,serif" font-size="14.00" fill="#5b00c0">:rw</text>
</g>
</g>
</svg>
