<?xml version="1.0" encoding="UTF-8" standalone="no"?>
<!DOCTYPE svg PUBLIC "-//W3C//DTD SVG 1.1//EN" "http://www.w3.org/Graphics/SVG/1.1/DTD/svg11.dtd">
<!-- Generated by graphviz version 2.43.0 (0)
 -->
<!-- Title: a_graph Pages: 1 -->
<svg width="71pt" height="119pt" viewBox="0.00 0.00 70.50 119.00" xmlns="http://www.w3.org/2000/svg" xmlns:xlink="http://www.w3.org/1999/xlink">
<g id="graph0" class="graph" transform="scale(1 1) rotate(0) translate(4 115)">
<title>a_graph</title>
<polygon fill="white" stroke="transparent" points="-4,4 -4,-115 66.5,-115 66.5,4 -4,4"/>
<!-- T9 -->
<g id="node1" class="node">
<title>T9</title>
<polygon fill="none" stroke="#0058ad" points="0,-81.5 0,-110.5 59,-110.5 59,-81.5 0,-81.5"/>
<text text-anchor="middle" x="29.5" y="-92.3" font-family="Times,serif" font-size="14.00" fill="#0058ad">w :y 1</text>
</g>
<!-- T3 -->
<g id="node2" class="node">
<title>T3</title>
<polygon fill="none" stroke="#0058ad" points="0,-0.5 0,-29.5 59,-29.5 59,-0.5 0,-0.5"/>
<text text-anchor="middle" x="29.5" y="-11.3" font-family="Times,serif" font-size="14.00" fill="#0058ad">w :x 0</text>
</g>
<!-- T9&#45;&gt;T3 -->
<g id="edge1" class="edge">
<title>T9:f0-&gt;T3:f0</title>
<path fill="none" stroke="#c02700" d="M15.25,-81.44C10.93,-76.08 6.74,-69.68 4.5,-63 1.63,-54.46 4.42,-45.58 9.03,-37.82"/>
<polygon fill="#c02700" stroke="#c02700" points="11.92,-39.79 14.81,-29.6 6.19,-35.77 11.92,-39.79"/>
<text text-anchor="middle" x="19" y="-51.8" font-family="Times,serif" font-size="14.00" fill="#c02700">:ww</text>
</g>
<!-- T3&#45;&gt;T9 -->
<g id="edge2" class="edge">
<title>T3:f0-&gt;T9:f0</title>
<path fill="none" stroke="#c02700" d="M31.67,-29.75C32.41,-35.44 33.14,-42.01 33.5,-48 33.95,-55.51 33.59,-63.68 32.94,-71.11"/>
<polygon fill="#c02700" stroke="#c02700" points="29.43,-70.99 31.82,-81.31 36.39,-71.75 29.43,-70.99"/>
<text text-anchor="middle" x="48" y="-51.8" font-family="Times,serif" font-size="14.00" fill="#c02700">:ww</text>
</g>
</g>
</svg>