<?xml version="1.0" encoding="UTF-8" standalone="no"?>
<!DOCTYPE svg PUBLIC "-//W3C//DTD SVG 1.1//EN" "http://www.w3.org/Graphics/SVG/1.1/DTD/svg11.dtd">
<!-- Generated by graphviz version 2.43.0 (0)
 -->
<!-- Title: a_graph Pages: 1 -->
<svg width="131pt" height="281pt" viewBox="0.00 0.00 131.00 281.00" xmlns="http://www.w3.org/2000/svg" xmlns:xlink="http://www.w3.org/1999/xlink">
<g id="graph0" class="graph" transform="scale(1 1) rotate(0) translate(4 277)">
<title>a_graph</title>
<polygon fill="white" stroke="transparent" points="-4,4 -4,-277 127,-277 127,4 -4,4"/>
<!-- T3 -->
<g id="node1" class="node">
<title>T3</title>
<polygon fill="none" stroke="#0058ad" points="47.5,-243.5 47.5,-272.5 106.5,-272.5 106.5,-243.5 47.5,-243.5"/>
<text text-anchor="middle" x="77" y="-254.3" font-family="Times,serif" font-size="14.00" fill="#0058ad">w :y 0</text>
</g>
<!-- T5 -->
<g id="node3" class="node">
<title>T5</title>
<polygon fill="none" stroke="#0058ad" points="0,-162.5 0,-191.5 84,-191.5 84,-162.5 0,-162.5"/>
<text text-anchor="middle" x="42" y="-173.3" font-family="Times,serif" font-size="14.00" fill="#0058ad">r :y #{0}</text>
</g>
<!-- T3&#45;&gt;T5 -->
<g id="edge1" class="edge">
<title>T3:f0-&gt;T5:f0</title>
<path fill="none" stroke="#c000a5" d="M70.58,-243.14C65.5,-231.38 58.3,-214.72 52.4,-201.06"/>
<polygon fill="#c000a5" stroke="#c000a5" points="55.56,-199.55 48.38,-191.76 49.13,-202.33 55.56,-199.55"/>
<text text-anchor="middle" x="75" y="-213.8" font-family="Times,serif" font-size="14.00" fill="#c000a5">:wr</text>
</g>
<!-- T7 -->
<g id="node2" class="node">
<title>T7</title>
<polygon fill="none" stroke="#0058ad" points="21.5,-81.5 21.5,-110.5 80.5,-110.5 80.5,-81.5 21.5,-81.5"/>
<text text-anchor="middle" x="51" y="-92.3" font-family="Times,serif" font-size="14.00" fill="#0058ad">w :x 0</text>
</g>
<!-- T1 -->
<g id="node4" class="node">
<title>T1</title>
<polygon fill="none" stroke="#0058ad" points="39,-0.5 39,-29.5 123,-29.5 123,-0.5 39,-0.5"/>
<text text-anchor="middle" x="81" y="-11.3" font-family="Times,serif" font-size="14.00" fill="#0058ad">r :x #{0}</text>
</g>
<!-- T7&#45;&gt;T1 -->
<g id="edge2" class="edge">
<title>T7:f0-&gt;T1:f0</title>
<path fill="none" stroke="#c000a5" d="M56.5,-81.14C60.82,-69.5 66.91,-53.04 71.94,-39.46"/>
<polygon fill="#c000a5" stroke="#c000a5" points="75.34,-40.36 75.53,-29.76 68.78,-37.92 75.34,-40.36"/>
<text text-anchor="middle" x="81" y="-51.8" font-family="Times,serif" font-size="14.00" fill="#c000a5">:wr</text>
</g>
<!-- T5&#45;&gt;T7 -->
<g id="edge3" class="edge">
<title>T5-&gt;T7</title>
<path fill="none" stroke="#00c0c0" d="M43.57,-162.24C44.87,-150.8 46.76,-134.25 48.3,-120.69"/>
<polygon fill="#00c0c0" stroke="#00c0c0" points="51.8,-120.93 49.45,-110.6 44.84,-120.14 51.8,-120.93"/>
<text text-anchor="middle" x="53" y="-132.8" font-family="Times,serif" font-size="14.00" fill="#00c0c0">p</text>
</g>
<!-- T1&#45;&gt;T3 -->
<g id="edge4" class="edge">
<title>T1-&gt;T3</title>
<path fill="none" stroke="#00c0c0" d="M89.65,-29.8C92.6,-35.25 95.52,-41.71 97,-48 98.53,-54.49 97.1,-56.33 97,-63 94.79,-205.36 95.09,-208.03 91,-225 90.29,-227.93 89.33,-230.93 88.25,-233.86"/>
<polygon fill="#00c0c0" stroke="#00c0c0" points="84.9,-232.78 84.24,-243.35 91.35,-235.5 84.9,-232.78"/>
<text text-anchor="middle" x="101" y="-132.8" font-family="Times,serif" font-size="14.00" fill="#00c0c0">p</text>
</g>
</g>
</svg>